<?xml version="1.0" standalone="no"?>
<!DOCTYPE svg PUBLIC "-//W3C//DTD SVG 20010904//EN"
 "http://www.w3.org/TR/2001/REC-SVG-20010904/DTD/svg10.dtd">
<svg version="1.0" xmlns="http://www.w3.org/2000/svg"
 width="70.000000pt" height="70.000000pt" viewBox="0 0 70.000000 70.000000"
 preserveAspectRatio="xMidYMid meet">
<metadata>
Created by potrace 1.11, written by Peter Selinger 2001-2013
</metadata>
<g transform="translate(0.000000,70.000000) scale(0.100000,-0.100000)"
fill="#000000" stroke="none">
<path d="M254 650 c-28 -10 -69 -29 -92 -44 l-42 -26 17 -35 c19 -41 55 -55
87 -35 67 43 127 54 175 34 34 -14 51 -46 57 -110 l4 -42 -77 -7 c-162 -15
-273 -75 -288 -158 -31 -166 152 -253 320 -151 61 36 66 38 63 27 -2 -12 14
-47 26 -55 6 -4 30 -8 54 -8 l42 0 0 213 c0 162 -4 226 -15 265 -16 54 -56
101 -109 129 -45 24 -158 26 -222 3z m203 -404 c1 -42 -2 -52 -29 -76 -70 -64
-198 -48 -198 25 0 38 10 55 44 72 44 23 84 32 136 30 l45 -2 2 -49z"/>
</g>
</svg>
